# xmcd CD database file
#
# Track frame offsets:
#	182
#	18625
#	38890
#	58877
#	76725
#	99592
#	128897
#	139990
#	164620
#
# Disc length: 2570 seconds
#
# Revision: 4
# Processed by: cddbd v1.4PL0 Copyright (c) Steve Scherf et al.
# Submitted via: CDex 1.40Beta9
#
DISCID=780a0709,780a0809,7b0a0809
DTITLE=Cowboy Junkies - Whites off Earth Now!!!
DYEAR=1986
DGENRE=Rock
TTITLE0=Shining Moon
TTITLE1=State Trooper
TTITLE2=Me and the Devil
TTITLE3=Decoration Day
TTITLE4=Baby Please Don't Go
TTITLE5=I'll Never Get Out of These Blues Alive
TTITLE6=Take Me
TTITLE7=Forgive Me
TTITLE8=Crossroads
EXTD=YEAR: 1986 ID3G: 17
EXTT0=
EXTT1=
EXTT2=
EXTT3=
EXTT4=
EXTT5=
EXTT6=
EXTT7=
EXTT8=
PLAYORDER=
